Track 1: size = 6
@0 
Meta message: 88
@0 
Meta message: 89
@0 
Meta message: 81
@0 
Meta message: 3
@0 
Meta message: 1
@1 
Meta message: 47
Track 2: size = 127
@0 
Channel: 0 Command:192@0 
Channel: 0 Command:176@0 
Channel: 0 Command:176@0 
Channel: 0 Command:176@0 
Channel: 0 Command:176@0 
Channel: 0 Command:176@0 
Channel: 0 Note on, E4 key=64 velocity: 71
@0 
Channel: 0 Command:176@0 
Channel: 0 Command:176@0 
Channel: 0 Command:176@0 
Channel: 0 Command:176@0 
Channel: 0 Command:176@0 
Meta message: 3
@0 
Channel: 0 Note on, C3 key=48 velocity: 67
@960 
Channel: 0 Note on, D4 key=62 velocity: 70
@960 
Channel: 0 Note on, G3 key=55 velocity: 83
@979 
Channel: 0 Note off, E4 key=64 velocity: 0
@979 
Channel: 0 Note off, C3 key=48 velocity: 0
@1920 
Channel: 0 Note on, C4 key=60 velocity: 73
@1920 
Channel: 0 Note on, E3 key=52 velocity: 78
@1939 
Channel: 0 Note off, D4 key=62 velocity: 0
@1939 
Channel: 0 Note off, G3 key=55 velocity: 0
@2880 
Channel: 0 Note on, D4 key=62 velocity: 79
@2880 
Channel: 0 Note on, G3 key=55 velocity: 84
@2899 
Channel: 0 Note off, C4 key=60 velocity: 0
@2899 
Channel: 0 Note off, E3 key=52 velocity: 0
@3791 
Channel: 0 Note off, D4 key=62 velocity: 0
@3791 
Channel: 0 Note off, G3 key=55 velocity: 0
@3840 
Channel: 0 Note on, E4 key=64 velocity: 88
@3840 
Channel: 0 Note on, C3 key=48 velocity: 69
@4800 
Channel: 0 Note off, E4 key=64 velocity: 0
@4800 
Channel: 0 Note on, E4 key=64 velocity: 87
@4800 
Channel: 0 Note on, G3 key=55 velocity: 80
@4819 
Channel: 0 Note off, C3 key=48 velocity: 0
@5760 
Channel: 0 Note off, E4 key=64 velocity: 0
@5760 
Channel: 0 Note on, E4 key=64 velocity: 86
@5760 
Channel: 0 Note on, E3 key=52 velocity: 76
@5779 
Channel: 0 Note off, G3 key=55 velocity: 0
@6720 
Channel: 0 Note on, G3 key=55 velocity: 79
@6739 
Channel: 0 Note off, E3 key=52 velocity: 0
@7631 
Channel: 0 Note off, G3 key=55 velocity: 0
@7680 
Channel: 0 Note off, E4 key=64 velocity: 0
@7680 
Channel: 0 Note on, D4 key=62 velocity: 74
@7680 
Channel: 0 Note on, B2 key=47 velocity: 70
@8640 
Channel: 0 Note off, D4 key=62 velocity: 0
@8640 
Channel: 0 Note on, D4 key=62 velocity: 85
@8640 
Channel: 0 Note on, G3 key=55 velocity: 84
@8659 
Channel: 0 Note off, B2 key=47 velocity: 0
@9600 
Channel: 0 Note off, D4 key=62 velocity: 0
@9600 
Channel: 0 Note on, D4 key=62 velocity: 84
@9600 
Channel: 0 Note on, F3 key=53 velocity: 74
@9619 
Channel: 0 Note off, G3 key=55 velocity: 0
@10560 
Channel: 0 Note on, G3 key=55 velocity: 78
@10579 
Channel: 0 Note off, F3 key=53 velocity: 0
@11471 
Channel: 0 Note off, G3 key=55 velocity: 0
@11520 
Channel: 0 Note off, D4 key=62 velocity: 0
@11520 
Channel: 0 Note on, E4 key=64 velocity: 82
@11520 
Channel: 0 Note on, C3 key=48 velocity: 72
@12480 
Channel: 0 Note on, G4 key=67 velocity: 85
@12480 
Channel: 0 Note on, G3 key=55 velocity: 84
@12499 
Channel: 0 Note off, E4 key=64 velocity: 0
@12499 
Channel: 0 Note off, C3 key=48 velocity: 0
@13391 
Channel: 0 Note off, G4 key=67 velocity: 0
@13440 
Channel: 0 Note on, G4 key=67 velocity: 79
@13440 
Channel: 0 Note on, E3 key=52 velocity: 74
@13459 
Channel: 0 Note off, G3 key=55 velocity: 0
@14400 
Channel: 0 Note on, G3 key=55 velocity: 83
@14419 
Channel: 0 Note off, E3 key=52 velocity: 0
@15311 
Channel: 0 Note off, G3 key=55 velocity: 0
@15360 
Channel: 0 Note off, G4 key=67 velocity: 0
@15360 
Channel: 0 Note on, E4 key=64 velocity: 68
@15360 
Channel: 0 Note on, C3 key=48 velocity: 67
@16320 
Channel: 0 Note on, D4 key=62 velocity: 68
@16320 
Channel: 0 Note on, G3 key=55 velocity: 83
@16339 
Channel: 0 Note off, E4 key=64 velocity: 0
@16339 
Channel: 0 Note off, C3 key=48 velocity: 0
@17280 
Channel: 0 Note on, C4 key=60 velocity: 69
@17280 
Channel: 0 Note on, E3 key=52 velocity: 76
@17299 
Channel: 0 Note off, D4 key=62 velocity: 0
@17299 
Channel: 0 Note off, G3 key=55 velocity: 0
@18240 
Channel: 0 Note on, D4 key=62 velocity: 82
@18240 
Channel: 0 Note on, G3 key=55 velocity: 77
@18259 
Channel: 0 Note off, C4 key=60 velocity: 0
@18259 
Channel: 0 Note off, E3 key=52 velocity: 0
@19151 
Channel: 0 Note off, D4 key=62 velocity: 0
@19151 
Channel: 0 Note off, G3 key=55 velocity: 0
@19200 
Channel: 0 Note on, E4 key=64 velocity: 87
@19200 
Channel: 0 Note on, C3 key=48 velocity: 73
@20160 
Channel: 0 Note off, E4 key=64 velocity: 0
@20160 
Channel: 0 Note on, E4 key=64 velocity: 83
@20160 
Channel: 0 Note on, G3 key=55 velocity: 82
@20179 
Channel: 0 Note off, C3 key=48 velocity: 0
@21120 
Channel: 0 Note off, E4 key=64 velocity: 0
@21120 
Channel: 0 Note on, E4 key=64 velocity: 83
@21120 
Channel: 0 Note on, E3 key=52 velocity: 76
@21139 
Channel: 0 Note off, G3 key=55 velocity: 0
@22080 
Channel: 0 Note off, E4 key=64 velocity: 0
@22080 
Channel: 0 Note on, E4 key=64 velocity: 86
@22080 
Channel: 0 Note on, G3 key=55 velocity: 77
@22099 
Channel: 0 Note off, E3 key=52 velocity: 0
@22991 
Channel: 0 Note off, G3 key=55 velocity: 0
@23040 
Channel: 0 Note off, E4 key=64 velocity: 0
@23040 
Channel: 0 Note on, D4 key=62 velocity: 79
@23040 
Channel: 0 Note on, B2 key=47 velocity: 68
@24000 
Channel: 0 Note off, D4 key=62 velocity: 0
@24000 
Channel: 0 Note on, D4 key=62 velocity: 79
@24000 
Channel: 0 Note on, G3 key=55 velocity: 88
@24019 
Channel: 0 Note off, B2 key=47 velocity: 0
@24960 
Channel: 0 Note off, D4 key=62 velocity: 0
@24960 
Channel: 0 Note on, E4 key=64 velocity: 80
@24960 
Channel: 0 Note on, F3 key=53 velocity: 74
@24979 
Channel: 0 Note off, G3 key=55 velocity: 0
@25920 
Channel: 0 Note on, D4 key=62 velocity: 73
@25920 
Channel: 0 Note on, G3 key=55 velocity: 73
@25939 
Channel: 0 Note off, E4 key=64 velocity: 0
@25939 
Channel: 0 Note off, F3 key=53 velocity: 0
@26831 
Channel: 0 Note off, D4 key=62 velocity: 0
@26831 
Channel: 0 Note off, G3 key=55 velocity: 0
@26880 
Channel: 0 Note on, C4 key=60 velocity: 72
@26880 
Channel: 0 Note on, C3 key=48 velocity: 69
@27840 
Channel: 0 Note on, G3 key=55 velocity: 84
@27859 
Channel: 0 Note off, C3 key=48 velocity: 0
@28800 
Channel: 0 Note on, C3 key=48 velocity: 72
@28819 
Channel: 0 Note off, G3 key=55 velocity: 0
@30623 
Channel: 0 Note off, C3 key=48 velocity: 0
@30720 
Channel: 0 Note off, C4 key=60 velocity: 0
@30721 
Meta message: 47
